<svg width="176" height="371" viewBox="0 0 176 371" fill="none" xmlns="http://www.w3.org/2000/svg">
<g clip-path="url(#clip0_1_3954)">
<g opacity="0.6">
<path d="M176 82H38.2651L31.4142 123.918L30.5741 129.074L25.7388 158.588L24.8987 163.877L15.754 219.755L15.6573 220.337L15.476 221.441L15.2493 222.839L14.8384 225.365L14.5059 227.409L14.0768 230.014L12.7773 237.96L9.41683 258.512L8.39236 264.79L7.90279 267.793L7.12311 272.554L6.5187 276.336L6.46431 276.675L6.11375 278.741L6.07749 278.953L6.0382 279.196L5.92337 279.902L5.82968 280.472L5.6816 281.382L3.62058 294.001L3.14007 296.897L-0.00585938 316.143L1.32686 323.643L1.58373 325.089L2.06725 327.795L2.23347 328.704L6.54288 352.796L8.20197 362.076L8.41956 363.289L9.53469 369.522L10.5017 374.926L11.4476 380.224L14.0708 394.875L14.8202 399.063L16.8843 410.587V410.657L16.9659 411.121L17.1502 412.14L17.1925 412.383L19.8338 427.149L19.997 428.059L25.5031 458.61L26.8116 465.925L26.8358 466.05L29.3864 480.303L63.8678 478.766L66.1524 478.663H66.4546L67.4005 478.62H67.6332H67.8508L69.2077 478.559L71.3926 478.462L73.5231 478.368L75.0553 478.299L76.3699 478.241L82.1118 477.986L85.6203 477.829H85.9225L90.8666 477.607L92.4018 477.537L92.846 477.519L94.2271 477.459L95.4842 477.401L96.6266 477.349H96.8109H96.8351L108.606 476.825L109.715 476.776L114.659 476.555L143.166 475.284L174.489 473.831L175.372 473.792L176.015 473.762L176 82Z" fill="#D3D4E1"/>
<path d="M176 406.066L143.495 285.846L124.695 396.221L92.9727 371.026L114.625 476.397L176 473.656V406.066Z" fill="#B7B9C7"/>
<path d="M78.5399 82L64.7715 182.998L97.6723 257.324L119.996 220.161L161.12 200.982L159.053 82L169.5 27.5L78.5399 82Z" fill="#E5E6F0"/>
<path d="M154.072 176.669L95.3212 279.848L64.7715 182.668L90.6219 237.857L154.072 176.669Z" fill="#BEBFCE"/>
<path d="M81.616 82L116.5 63L38.2347 82L0 316.067L29.3741 480.303L75.043 478.265L4.84733 316.067L81.616 82Z" fill="#E5E6F0"/>
<path d="M38.3918 174.74L30.7008 177.937C30.2793 178.384 29.9941 178.942 29.8788 179.547C29.5524 180.854 29.64 182.607 30.7008 183.623C31.8099 184.681 33.3994 183.875 34.2426 183.053C35.3305 181.991 36.2643 180.399 36.9231 178.995C37.2888 178.237 38.7273 175.492 38.3918 174.74Z" fill="#B1B2C4"/>
<path d="M38.4974 175.45C37.3188 178.097 36.0133 179.331 34.6141 180.378C33.7981 180.984 32.7434 181.482 31.8006 181.497C30.8577 181.512 30.0327 181.051 29.6489 179.765C28.8269 176.957 31.6918 176.235 33.4264 175.325C34.3844 174.831 35.2004 174.631 35.9166 173.873C36.2913 173.472 36.5754 172.475 36.9622 171.795C37.204 171.365 37.4911 171.058 37.8688 171.116C40.0628 171.456 39.0081 174.318 38.4974 175.45Z" fill="#C15C0A"/>
<path d="M36.9639 171.805C38.1576 172.617 37.3114 174.883 36.8762 175.862C35.7007 178.51 34.3921 179.744 32.9929 180.791C32.6244 181.066 32.2284 181.303 31.8113 181.497C30.8745 181.497 30.0434 181.051 29.6596 179.766C28.8286 176.957 31.6934 176.235 33.4281 175.326C34.3861 174.831 35.202 174.631 35.9182 173.873C36.293 173.482 36.577 172.484 36.9639 171.805Z" fill="#F9800D"/>
<path d="M32.665 177.825C32.9672 178.016 32.9823 178.568 32.6982 179.056C32.4141 179.544 31.9457 179.787 31.6435 179.593C31.3413 179.398 31.3262 178.85 31.6073 178.361C31.8883 177.873 32.3628 177.633 32.665 177.825Z" fill="#C15C0A"/>
<path d="M42.2645 339.049L30.5421 337.335C29.7201 337.511 28.9646 338.106 28.339 338.74C26.961 340.138 25.7522 342.4 26.278 344.462C26.825 346.616 29.3544 346.788 30.9954 346.385C33.1108 345.866 35.4347 344.565 37.2903 343.292C38.2906 342.606 42.1013 340.244 42.2645 339.049Z" fill="#B1B2C4"/>
<path d="M41.8676 340.025C38.4527 342.47 35.9414 343.043 33.4633 343.313C32.0158 343.468 30.3657 343.313 29.2113 342.624C28.0569 341.936 27.3981 340.75 27.9058 338.852C28.9907 334.706 33.0251 335.934 35.7993 336.104C37.3315 336.192 38.4678 336.553 39.9063 336.131C40.6618 335.91 41.7558 334.873 42.7349 334.312C43.3393 333.951 43.9437 333.781 44.3396 334.13C46.7512 336.177 43.3333 338.982 41.8676 340.025Z" fill="#AA393F"/>
<path d="M42.7295 334.309C43.5636 336.213 40.8347 338.424 39.5775 339.328C36.1626 341.772 33.6513 342.361 31.1702 342.618C30.5173 342.688 29.8588 342.688 29.2059 342.618C28.0636 341.939 27.3927 340.744 27.9004 338.846C28.9853 334.7 33.0197 335.928 35.7939 336.098C37.3261 336.186 38.4624 336.547 39.9009 336.125C40.6624 335.91 41.7564 334.873 42.7295 334.309Z" fill="#CE5657"/>
<path d="M33.0029 338.655C33.2266 339.119 32.8307 339.822 32.1235 340.226C31.4164 340.629 30.6609 340.58 30.4402 340.113C30.2196 339.646 30.6125 338.946 31.3227 338.542C32.0329 338.139 32.7823 338.182 33.0029 338.655Z" fill="#72383E"/>
<path d="M42.1844 336.104C42.3355 336.408 42.0665 336.899 41.58 337.172C41.0934 337.445 40.5857 337.411 40.4346 337.096C40.2835 336.781 40.5525 336.301 41.039 336.028C41.5256 335.755 42.0363 335.786 42.1844 336.104Z" fill="#72383E"/>
<path d="M71.3326 118.117L68.4979 116.118C68.4375 116.904 67.7424 117.686 67.9661 118.52C68.09 118.975 68.8485 119.8 69.2293 120.015C70.2507 120.591 73.0854 119.002 71.3326 118.117Z" fill="#B1B2C4"/>
<path d="M71.7676 118.75C71.2206 119.484 69.6975 119.466 69.2261 118.75L68.5884 117.95C68.3666 117.654 68.2689 117.283 68.3164 116.916C68.346 116.652 68.4351 116.399 68.5771 116.175C68.719 115.951 68.91 115.762 69.1354 115.624C70.3442 114.893 70.592 115.803 71.1239 116.655C71.3506 117.019 71.686 117.304 71.8794 117.613C72.0728 117.922 72.1272 118.274 71.7676 118.75Z" fill="#0D7CBA"/>
<path d="M71.8794 117.616C71.8293 117.755 71.7568 117.886 71.6648 118.001C71.1178 118.735 69.5947 118.717 69.1233 118.001L68.4856 117.201C68.4168 117.114 68.3599 117.018 68.3164 116.916C68.346 116.652 68.4351 116.399 68.577 116.175C68.7189 115.951 68.9099 115.762 69.1354 115.624C70.3442 114.893 70.592 115.803 71.1239 116.655C71.3505 117.022 71.686 117.307 71.8794 117.616Z" fill="#1496EA"/>
<path d="M70.4168 116.924C70.4168 117.1 70.2234 117.228 69.9877 117.228C69.752 117.228 69.5586 117.085 69.5586 116.924C69.5586 116.764 69.749 116.603 69.9877 116.603C70.2265 116.603 70.4168 116.746 70.4168 116.924Z" fill="#2B4049"/>
<path d="M114.372 108.075L119.612 108.654C119.24 109.364 119.192 110.207 118.376 110.777C117.79 111.193 116.922 111.651 116.236 111.654C114.559 111.663 113.208 109.598 114.372 108.075Z" fill="#B1B2C4"/>
<path d="M117.303 108.336L116.874 106.483C117.366 106.483 117.98 106.319 118.412 106.483C119.594 106.926 120.319 108.442 118.959 109.573C117.771 110.562 116.275 110.692 115.308 110.153C114.97 109.964 114.115 109.491 113.912 108.615L117.303 108.336Z" fill="#0D7CBA"/>
<path d="M113.881 107.863C114.326 107.096 114.839 107.733 115.441 107.836C118.339 108.333 115.178 106.353 116.142 105.952C116.631 105.746 117.586 106.01 118.188 106.234C119.372 106.677 120.098 107.839 118.735 108.964C117.55 109.949 116.051 110.083 115.087 109.543C114.522 109.234 113.443 108.633 113.881 107.863Z" fill="#1496EA"/>
<path d="M117.14 108.63C117.195 108.861 117.488 108.967 117.799 108.873C118.11 108.779 118.322 108.515 118.28 108.303C118.237 108.09 117.932 107.966 117.621 108.06C117.309 108.154 117.089 108.403 117.14 108.63Z" fill="#2B4049"/>
<path d="M129.431 188.205L122.48 189.916C123.055 190.807 123.206 191.938 124.36 192.578C125.185 193.036 126.394 193.503 127.31 193.385C129.561 193.091 131.145 190.061 129.431 188.205Z" fill="#B1B2C4"/>
<path d="M125.533 189.075L125.905 186.495C125.249 186.598 124.409 186.467 123.853 186.762C122.321 187.568 121.514 189.749 123.451 191.038C125.14 192.166 127.156 192.078 128.389 191.177C128.821 190.874 129.9 190.07 130.084 188.851L125.533 189.075Z" fill="#0D7CBA"/>
<path d="M130.065 187.836C129.388 186.871 128.774 187.836 127.98 188.069C124.163 189.255 128.173 186.022 126.843 185.643C126.169 185.455 124.918 185.98 124.123 186.389C122.591 187.196 121.748 188.891 123.685 190.183C125.375 191.308 127.387 191.223 128.62 190.322C129.349 189.801 130.733 188.797 130.065 187.836Z" fill="#1496EA"/>
<path d="M125.788 189.445C125.743 189.764 125.362 189.964 124.936 189.888C124.51 189.812 124.201 189.497 124.247 189.179C124.292 188.86 124.676 188.663 125.102 188.736C125.528 188.809 125.833 189.127 125.788 189.445Z" fill="#2B4049"/>
<path d="M73.2511 183.617C72.816 183.377 71.8096 184.157 71.3291 184.205C71.0206 184.244 70.7075 184.219 70.4087 184.133C70.11 184.046 69.832 183.899 69.5915 183.702L67.6725 183.398C67.334 186.204 70.1354 189.033 72.6316 187.22C73.3569 186.698 74.3693 184.235 73.2511 183.617Z" fill="#B1B2C4"/>
<path d="M71.8948 183.666C70.686 184.221 69.8308 182.995 68.6129 182.865C66.2708 182.616 69.0178 185.291 69.4923 185.616C69.7099 185.764 70.1662 186.165 70.7011 186.158C71.6682 186.158 72.8165 185.998 73.3061 185C74.533 182.465 73.0039 183.159 71.8948 183.666Z" fill="#B7820B"/>
<path d="M71.9265 183.065C70.7177 183.62 69.8504 182.895 68.6325 182.762C66.2935 182.513 69.0496 184.684 69.524 185.012C69.8714 185.298 70.2888 185.485 70.7328 185.555C71.2297 185.603 71.7306 185.522 72.187 185.319C72.6434 185.116 73.0398 184.798 73.3378 184.396C74.4741 182.874 73.0356 182.558 71.9265 183.065Z" fill="#F9C730"/>
<path d="M72.7954 183.814C72.9973 183.814 73.161 183.719 73.161 183.601C73.161 183.484 72.9973 183.389 72.7954 183.389C72.5934 183.389 72.4297 183.484 72.4297 183.601C72.4297 183.719 72.5934 183.814 72.7954 183.814Z" fill="#A07D2E"/>
<path d="M69.204 183.441C69.204 183.556 69.0408 183.653 68.8383 183.653C68.6358 183.653 68.4727 183.556 68.4727 183.441C68.4727 183.326 68.6358 183.229 68.8383 183.229C69.0408 183.229 69.204 183.323 69.204 183.441Z" fill="#A07D2E"/>
<path d="M96.3961 92.484C96.1121 92.0746 94.8851 92.3172 94.4167 92.1443C94.1225 92.0394 93.8522 91.8763 93.6217 91.6649C93.3913 91.4534 93.2053 91.1978 93.0749 90.913L91.4823 89.7788C89.9713 92.1443 91.2587 95.9443 94.2807 95.4409C95.1601 95.2953 97.1244 93.5394 96.3961 92.484Z" fill="#B1B2C4"/>
<path d="M95.1581 91.9259C93.8284 91.8774 93.5927 90.3944 92.5561 89.7303C90.5646 88.4535 91.8732 92.0867 92.1572 92.5931C92.2902 92.8266 92.5259 93.3907 93.0185 93.6303C93.8919 94.0549 94.9949 94.4431 95.8562 93.7638C98.032 92.026 96.3699 91.9593 95.1581 91.9259Z" fill="#D3A122"/>
<path d="M95.4466 91.3925C94.1169 91.344 93.6546 90.3037 92.618 89.6396C90.6265 88.3628 92.1617 91.5532 92.4458 92.0657C92.6375 92.4811 92.9345 92.8387 93.307 93.1029C93.7278 93.3689 94.2101 93.5209 94.7069 93.5443C95.2036 93.5677 95.6979 93.4616 96.1417 93.2364C97.8129 92.369 96.6585 91.438 95.4466 91.3925Z" fill="#F9C730"/>
<path d="M96.3191 92.4295C96.2708 92.5356 96.0804 92.5447 95.8991 92.4537C95.7178 92.3628 95.612 92.2051 95.6634 92.0989C95.7147 91.9928 95.9021 91.9837 96.0834 92.0746C96.2647 92.1656 96.3705 92.3233 96.3191 92.4295Z" fill="#A07D2E"/>
<path d="M92.8406 90.5038C92.7923 90.6069 92.6019 90.6191 92.4206 90.5281C92.2392 90.4371 92.1335 90.2794 92.1849 90.1733C92.2362 90.0671 92.4236 90.055 92.6049 90.146C92.7862 90.237 92.895 90.4098 92.8406 90.5038Z" fill="#A07D2E"/>
<path d="M78.5539 239.206C78.0794 239.325 77.7621 240.626 77.4206 241.002C77.217 241.242 76.9679 241.438 76.6877 241.58C76.4075 241.723 76.1019 241.807 75.7887 241.83L74.1387 242.955C75.5197 245.348 79.3245 245.566 80.1827 242.427C80.4366 241.499 79.7717 238.9 78.5539 239.206Z" fill="#B1B2C4"/>
<path d="M77.5396 240.192C76.9352 241.466 75.5572 241.12 74.5448 241.872C72.6016 243.316 76.2734 243.452 76.8294 243.37C77.0833 243.334 77.6696 243.322 78.0836 242.936C78.821 242.251 79.6248 241.329 79.4103 240.225C78.8633 237.426 78.0866 239.027 77.5396 240.192Z" fill="#B7820B"/>
<path d="M77.2129 239.707C76.6085 240.98 75.5175 241.026 74.4931 241.778C72.5469 243.225 75.9376 242.967 76.4937 242.885C76.9432 242.858 77.3769 242.708 77.7478 242.451C78.1625 242.133 78.4981 241.722 78.7283 241.252C78.9585 240.782 79.0769 240.264 79.0745 239.74C79.0624 237.781 77.7841 238.542 77.2129 239.707Z" fill="#E5A913"/>
<path d="M78.4718 239.258C78.5413 239.349 78.4718 239.537 78.3147 239.679C78.1575 239.822 77.9792 239.861 77.9097 239.77C77.8402 239.679 77.9097 239.491 78.0669 239.352C78.224 239.212 78.4054 239.17 78.4718 239.258Z" fill="#A07D2E"/>
<path d="M75.3397 241.899C75.4062 241.987 75.3397 242.175 75.1825 242.318C75.0254 242.46 74.8441 242.5 74.7776 242.409C74.7111 242.318 74.7776 242.133 74.9347 241.99C75.0919 241.848 75.2702 241.808 75.3397 241.899Z" fill="#A07D2E"/>
<path d="M124.38 276.806C123.474 276.59 121.525 277.694 120.558 277.834C119.322 278.013 117.922 277.931 117.016 277.53L113.123 277.494C112.679 280.918 118.563 283.848 123.434 281.252C124.852 280.487 126.68 277.361 124.38 276.806Z" fill="#B1B2C4"/>
<path d="M121.65 277.091C119.251 277.961 117.419 276.633 114.969 276.682C110.23 276.776 115.987 279.526 116.969 279.836C117.422 279.981 118.374 280.385 119.471 280.284C121.421 280.109 123.742 279.736 124.609 278.465C126.86 275.208 123.841 276.315 121.65 277.091Z" fill="#B7820B"/>
<path d="M121.668 276.366C119.268 277.237 117.47 276.509 115.004 276.557C110.268 276.651 116.004 278.798 116.989 279.111C117.789 279.411 118.635 279.563 119.489 279.56C121.441 279.487 123.417 278.892 124.626 277.74C126.784 275.708 123.859 275.572 121.668 276.366Z" fill="#E5A913"/>
<path d="M124.194 276.806C124.194 276.945 123.891 277.088 123.474 277.109C123.057 277.13 122.728 277.057 122.719 276.915C122.71 276.772 123.021 276.633 123.438 276.612C123.855 276.59 124.182 276.663 124.194 276.806Z" fill="#A07D2E"/>
<path d="M116.213 277.273C116.213 277.412 115.911 277.555 115.494 277.576C115.077 277.597 114.748 277.525 114.738 277.382C114.729 277.239 115.041 277.1 115.458 277.079C115.875 277.057 116.204 277.133 116.213 277.273Z" fill="#A07D2E"/>
<path d="M120.543 373.361C120.516 373.307 120.485 373.255 120.45 373.206C120.479 373.168 120.499 373.123 120.507 373.076L111.631 370.631C111.686 370.768 110.873 372.73 110.725 373.546C110.49 374.889 110.49 376.263 110.725 377.607C111.19 379.669 113.278 382.513 115.318 381.931C116.379 381.628 117.177 380.667 118.129 380.145C119.081 379.623 120.099 379.675 120.988 379.096C123.435 377.522 121.513 375.153 120.543 373.361Z" fill="#B1B2C4"/>
<path d="M115.916 369.858C112.818 369.443 111.232 372.49 111.485 375.053C111.612 376.36 113.262 379.584 114.547 379.884C115.411 380.084 117.073 378.974 117.061 378.917L118.781 377.825C120.503 378.35 123.235 375.423 121.972 372.609C121.256 371.008 117.566 370.079 115.916 369.858Z" fill="#C15C0A"/>
<path d="M114.976 368.205C111.882 367.79 110.978 372.014 111.229 374.574C111.359 375.881 112.323 377.928 113.61 378.228C114.472 378.429 116.134 377.319 116.125 377.258L117.841 376.169C119.567 376.691 123.024 375.084 121.77 372.269C121.045 370.686 116.626 368.439 114.976 368.205Z" fill="#F9800D"/>
<path d="M106.796 174.203L101.592 172.596C99.5942 173.757 102.925 175.629 103.879 175.899C104.714 176.135 105.91 176.42 106.805 176.071C107.899 175.656 107.938 174.534 106.796 174.203Z" fill="#B1B2C4"/>
<path d="M107.484 174.27C106.961 173.436 105.777 173.257 105.148 172.408C104.453 171.474 104.045 170.185 103.447 171.541L102.897 171.899C102.386 172.326 101.368 172.093 101.51 173.145C101.627 174.022 102.767 174.44 103.41 174.752C104.261 175.158 105.155 175.463 106.076 175.662C106.886 175.85 108.176 175.374 107.484 174.27Z" fill="#0D7CBA"/>
<path d="M108.035 173.915C107.512 173.081 106.33 172.902 105.698 172.053C105.003 171.119 104.169 169.87 103.583 171.228L103.459 171.531C102.948 171.962 101.93 171.729 102.072 172.781C102.19 173.657 103.329 174.076 103.973 174.388C104.823 174.794 105.718 175.099 106.638 175.298C107.436 175.495 108.727 175.022 108.035 173.915Z" fill="#1496EA"/>
<path d="M107.521 174.616C107.403 174.743 107.119 174.637 106.886 174.379C106.654 174.121 106.56 173.806 106.678 173.679C106.796 173.551 107.083 173.66 107.316 173.918C107.548 174.176 107.642 174.488 107.521 174.616Z" fill="#2B4049"/>
<path d="M103.75 173.448C103.632 173.576 103.348 173.469 103.115 173.209C102.882 172.948 102.789 172.638 102.906 172.511C103.024 172.384 103.308 172.49 103.541 172.748C103.774 173.005 103.867 173.321 103.75 173.448Z" fill="#2B4049"/>
<path d="M87.3639 302.602L82.1539 301.001C80.1533 302.165 83.4836 304.033 84.4416 304.303C85.2727 304.543 86.4694 304.825 87.3639 304.479C88.4579 304.055 88.4972 302.93 87.3639 302.602Z" fill="#B1B2C4"/>
<path d="M88.0594 302.669C87.5335 301.832 86.3519 301.653 85.7203 300.807C85.0253 299.869 84.6173 298.581 84.0189 299.939L83.4689 300.294C82.9582 300.722 81.9398 300.488 82.0818 301.54C82.1997 302.417 83.342 302.838 83.9827 303.151C84.8337 303.555 85.728 303.86 86.6481 304.061C87.455 304.249 88.7363 303.77 88.0594 302.669Z" fill="#0D7CBA"/>
<path d="M88.5972 302.314C88.0714 301.477 86.8897 301.298 86.2581 300.452C85.5631 299.515 84.729 298.268 84.1427 299.627L84.0158 299.93C83.5051 300.358 82.4866 300.124 82.6287 301.177C82.7465 302.053 83.8889 302.475 84.5295 302.787C85.3806 303.191 86.2749 303.496 87.195 303.697C87.9988 303.894 89.2892 303.415 88.5972 302.314Z" fill="#1496EA"/>
<path d="M88.0842 303.002C87.9663 303.13 87.6792 303.023 87.4465 302.766C87.2138 302.508 87.1232 302.196 87.241 302.068C87.3589 301.941 87.643 302.047 87.8757 302.305C88.1084 302.563 88.202 302.884 88.0842 303.002Z" fill="#2B4049"/>
<path d="M84.3082 301.844C84.1903 301.971 83.9062 301.865 83.6735 301.607C83.4408 301.35 83.3471 301.037 83.465 300.91C83.5829 300.782 83.8669 300.889 84.0996 301.146C84.3323 301.404 84.4321 301.717 84.3082 301.844Z" fill="#2B4049"/>
<path d="M9.18421 279.899L3.97423 278.298C1.97365 279.462 5.30393 281.331 6.26191 281.6C7.09297 281.84 8.29271 282.122 9.18421 281.776C10.2752 281.352 10.3145 280.227 9.18421 279.899Z" fill="#B1B2C4"/>
<path d="M9.86407 279.954C9.33824 279.117 8.15662 278.938 7.52804 278.092C6.82995 277.155 6.42198 275.866 5.82362 277.224L5.27361 277.579C4.76288 278.007 3.74446 277.773 3.8865 278.826C4.00435 279.702 5.14668 280.124 5.78735 280.436C6.63946 280.84 7.53473 281.145 8.4558 281.346C9.26571 281.546 10.5561 281.067 9.86407 279.954Z" fill="#0D7CBA"/>
<path d="M10.4145 279.608C9.88865 278.774 8.70703 278.595 8.07845 277.749C7.38036 276.812 6.5493 275.562 5.96303 276.921L5.83611 277.224C5.32538 277.652 4.30696 277.418 4.449 278.471C4.56685 279.347 5.70918 279.769 6.34985 280.081C7.20196 280.485 8.09723 280.791 9.0183 280.991C9.81612 281.188 11.1065 280.712 10.4145 279.608Z" fill="#1496EA"/>
<path d="M9.89994 280.308C9.78208 280.436 9.49802 280.33 9.26532 280.072C9.03262 279.814 8.93894 279.502 9.0568 279.374C9.17466 279.247 9.45873 279.353 9.69142 279.611C9.92412 279.869 10.0178 280.181 9.89994 280.308Z" fill="#2B4049"/>
<path d="M6.12651 279.141C6.00865 279.268 5.72458 279.162 5.49188 278.904C5.25919 278.647 5.1655 278.334 5.28336 278.207C5.40122 278.079 5.68831 278.186 5.92101 278.443C6.15371 278.701 6.24437 279.014 6.12651 279.141Z" fill="#2B4049"/>
<path d="M66.9692 154.281C66.3648 154.236 65.6334 154.676 65.3433 154.858L59.5833 155.009C58.3745 155.949 57.7097 158.309 58.6556 159.774C59.121 160.495 59.7405 161.005 60.1303 161.897C60.5715 162.897 60.638 163.971 61.7713 164.323C64.1013 165.026 65.1378 162.033 65.4733 160.259C65.8087 158.485 67.087 156.11 66.9692 154.281Z" fill="#B1B2C4"/>
<path d="M65.5844 154.236C64.4783 153.975 63.0247 154.961 61.8733 155.028C61.2901 155.058 60.8216 155.234 60.2112 155.331C58.6307 155.567 57.8298 157.584 59.1807 159.237C59.6582 159.819 60.1387 159.877 60.4771 160.753C60.7975 161.575 60.8791 162.012 61.8129 162.163C63.0217 162.358 63.3058 161.712 63.7409 161.181C64.1761 160.65 64.4632 159.919 64.7745 159.252C65.1492 158.448 65.6116 157.326 66.1827 156.741C67.1891 155.695 67.3523 154.654 65.5844 154.236Z" fill="#5A5A96"/>
<path d="M66.0941 153.132C64.985 152.871 63.5345 153.857 62.3801 153.924C61.7968 153.954 61.3314 154.13 60.721 154.227C59.1404 154.463 58.3396 156.48 59.6904 158.133C60.1679 158.715 60.6454 158.773 60.9869 159.649C61.3072 160.471 61.3858 160.905 62.3196 161.057C63.5284 161.251 63.8125 160.605 64.2507 160.074C64.6889 159.543 64.973 158.812 65.2842 158.145C65.6559 157.341 66.0428 157.014 66.6139 156.429C67.6172 155.385 67.862 153.551 66.0941 153.132Z" fill="#7675BB"/>
<path d="M64.071 157.087C63.8927 157.39 63.4153 157.39 63.0043 157.105C62.5933 156.82 62.3999 156.335 62.5782 156.034C62.7565 155.734 63.2339 155.731 63.6449 156.016C64.0559 156.301 64.2493 156.786 64.071 157.087Z" fill="#474777"/>
<path d="M99.1956 215.77C98.7151 215.378 97.8749 215.321 97.5365 215.306L92.7012 212.103C91.1751 212.173 89.3256 213.741 89.2954 215.494C89.2773 216.358 89.5069 217.137 89.3347 218.099C89.1413 219.178 88.6003 220.1 89.3347 221.037C90.8669 222.963 93.3812 221.095 94.6414 219.824C95.9016 218.554 98.2799 217.347 99.1956 215.77Z" fill="#B1B2C4"/>
<path d="M98.0802 214.932C97.3126 214.077 95.5689 214.053 94.5806 213.437C94.082 213.134 93.6015 213.004 93.0455 212.725C91.613 212.009 89.8361 213.207 90.0234 215.351C90.0929 216.106 90.4586 216.431 90.2561 217.347C90.0627 218.208 89.8905 218.614 90.5765 219.278C91.4559 220.134 92.0573 219.767 92.71 219.582C93.3628 219.397 94.0065 218.957 94.632 218.587C95.3845 218.141 96.3878 217.483 97.1856 217.328C98.5939 217.061 99.3071 216.297 98.0802 214.932Z" fill="#5A5A96"/>
<path d="M99.1138 214.317C98.3432 213.462 96.5995 213.437 95.6143 212.822C95.1156 212.518 94.6321 212.388 94.0791 212.109C92.6436 211.393 90.8667 212.591 91.0571 214.735C91.1266 215.491 91.4892 215.815 91.2867 216.731C91.0963 217.592 90.9211 217.999 91.6071 218.663C92.4865 219.518 93.0879 219.151 93.7436 218.966C94.3994 218.781 95.0371 218.341 95.6626 217.971C96.4151 217.525 96.9138 217.477 97.7116 217.322C99.1229 217.055 100.338 215.682 99.1138 214.317Z" fill="#7675BB"/>
<path d="M95.2516 216.406C94.9494 216.552 94.5414 216.282 94.3631 215.8C94.1848 215.318 94.2936 214.817 94.6049 214.672C94.9162 214.526 95.3151 214.796 95.4964 215.278C95.6777 215.76 95.5659 216.267 95.2516 216.406Z" fill="#474777"/>
<path d="M51.7379 268.678C51.1335 268.636 50.4022 269.072 50.1151 269.257L44.3551 269.406C43.1463 270.346 42.4784 272.706 43.4243 274.173C43.8897 274.895 44.5093 275.405 44.9021 276.296C45.3403 277.297 45.4068 278.371 46.5401 278.722C48.87 279.423 49.9066 276.433 50.242 274.656C50.5775 272.878 51.8558 270.51 51.7379 268.678Z" fill="#B1B2C4"/>
<path d="M50.356 268.636C49.2469 268.372 47.7963 269.36 46.6419 269.424C46.0587 269.457 45.5933 269.63 44.9798 269.727C43.4023 269.964 42.6015 271.981 43.9523 273.633C44.4268 274.219 44.9073 274.276 45.2488 275.15C45.5691 275.972 45.6477 276.405 46.5815 276.557C47.7903 276.754 48.0744 276.105 48.5126 275.577C48.9507 275.05 49.2348 274.313 49.5461 273.646C49.9178 272.842 50.3832 271.723 50.9543 271.135C51.9577 270.091 52.1239 269.051 50.356 268.636Z" fill="#5A5A96"/>
<path d="M50.8667 267.52C49.7576 267.256 48.304 268.245 47.1526 268.308C46.5694 268.342 46.1009 268.514 45.4905 268.612C43.91 268.848 43.1091 270.865 44.46 272.521C44.9375 273.103 45.418 273.161 45.7564 274.037C46.0768 274.859 46.1584 275.293 47.0922 275.444C48.301 275.641 48.585 274.992 49.0232 274.465C49.4614 273.937 49.7455 273.2 50.0538 272.533C50.4285 271.729 50.8123 271.405 51.3835 270.816C52.3989 269.782 52.6315 267.947 50.8667 267.52Z" fill="#7675BB"/>
<path d="M48.8398 271.483C48.6645 271.786 48.187 271.786 47.773 271.501C47.359 271.216 47.1686 270.731 47.3499 270.431C47.5312 270.131 48.0027 270.128 48.4167 270.413C48.8307 270.698 49.0181 271.183 48.8398 271.483Z" fill="#474777"/>
<path d="M135.87 305.143C135.314 304.858 134.495 304.98 134.166 305.034L128.751 302.884C127.303 303.275 125.907 305.213 126.3 306.954C126.493 307.809 126.904 308.531 126.971 309.52C127.046 310.627 126.75 311.642 127.693 312.422C129.63 314.002 131.591 311.627 132.495 310.108C133.398 308.589 135.372 306.896 135.87 305.143Z" fill="#B1B2C4"/>
<path d="M134.598 304.552C133.652 303.867 131.972 304.209 130.878 303.809C130.322 303.609 129.829 303.584 129.231 303.427C127.681 303.02 126.263 304.579 126.974 306.657C127.221 307.391 127.65 307.633 127.678 308.579C127.702 309.489 127.632 309.911 128.451 310.423C129.503 311.081 129.993 310.596 130.567 310.278C131.141 309.959 131.661 309.389 132.171 308.889C132.776 308.282 133.592 307.43 134.317 307.108C135.607 306.547 136.109 305.644 134.598 304.552Z" fill="#5A5A96"/>
<path d="M135.442 303.727C134.496 303.042 132.816 303.384 131.719 302.984C131.166 302.784 130.673 302.76 130.075 302.602C128.521 302.195 127.107 303.754 127.814 305.832C128.065 306.566 128.491 306.808 128.518 307.754C128.546 308.664 128.473 309.086 129.295 309.598C130.347 310.256 130.836 309.771 131.41 309.453C131.985 309.134 132.501 308.561 133.015 308.064C133.62 307.457 134.094 307.315 134.828 306.993C136.11 306.432 136.947 304.822 135.442 303.727Z" fill="#7675BB"/>
<path d="M132.238 306.602C131.975 306.814 131.528 306.629 131.241 306.196C130.953 305.762 130.938 305.24 131.198 305.031C131.458 304.822 131.911 305.004 132.198 305.438C132.486 305.871 132.504 306.393 132.238 306.602Z" fill="#474777"/>
<path d="M96.2894 138.114L92.3819 135.415C90.6382 136.513 90.8104 142.763 93.1555 143.791C94.3039 144.295 96.2984 144.016 97.063 142.781C98.2235 140.901 96.5039 139.988 96.2894 138.114Z" fill="#B1B2C4"/>
<path d="M97.4891 138.427C97.0034 137.886 96.5965 137.28 96.2802 136.625C96.0234 136.04 95.7937 135.312 95.1228 135.109C94.5365 134.921 93.367 135.373 92.8382 135.782C91.9557 136.461 92.4997 138.973 92.5692 139.421C92.6296 139.779 92.4755 140.146 92.542 140.519C92.8442 142.254 95.4159 141.935 96.6701 141.808C98.6193 141.59 98.5407 139.755 97.4891 138.427Z" fill="#407A46"/>
<path d="M97.3575 137.28C96.8715 136.74 96.4645 136.134 96.1487 135.479C95.8888 134.893 95.6621 134.166 94.9913 133.962C94.405 133.774 93.2355 134.226 92.7066 134.636C91.8211 135.315 92.3681 137.826 92.4376 138.275C92.4951 138.633 92.344 139 92.4074 139.373C92.7096 141.107 95.2844 140.789 96.5385 140.662C98.4847 140.449 98.4092 138.608 97.3575 137.28Z" fill="#54A060"/>
<path d="M95.4966 137.453C95.4966 137.756 95.0705 137.99 94.5476 137.99C94.0248 137.99 93.5957 137.747 93.5957 137.453C93.5957 137.159 94.0218 136.913 94.5476 136.913C95.0735 136.913 95.4966 137.156 95.4966 137.453Z" fill="#355E38"/>
<path d="M47.9865 99.6806L44.079 96.9814C42.3353 98.0823 42.5045 104.333 44.8436 105.361C45.998 105.876 47.9955 105.573 48.7722 104.36C49.9175 102.471 48.201 101.555 47.9865 99.6806Z" fill="#B1B2C4"/>
<path d="M49.1876 99.9961C48.7023 99.4556 48.2953 98.8492 47.9788 98.1947C47.7189 97.6063 47.4922 96.8785 46.8213 96.6783C46.2351 96.4903 45.0655 96.9422 44.5367 97.3485C43.6512 98.0309 44.1982 100.542 44.2677 100.988C44.3251 101.349 44.174 101.716 44.2375 102.086C44.5397 103.82 47.1145 103.505 48.3686 103.378C50.3148 103.147 50.2392 101.327 49.1876 99.9961Z" fill="#407A46"/>
<path d="M49.0563 98.8495C48.57 98.3098 48.1629 97.7032 47.8475 97.0481C47.5876 96.4597 47.3609 95.7319 46.687 95.5317C46.1007 95.3437 44.9312 95.7956 44.4024 96.2019C43.5199 96.8843 44.0639 99.3954 44.1364 99.8412C44.1938 100.202 44.0427 100.569 44.1062 100.939C44.4084 102.674 46.9802 102.358 48.2373 102.231C50.1835 102.013 50.1049 100.178 49.0563 98.8495Z" fill="#54A060"/>
<path d="M47.1938 99.0197C47.1938 99.323 46.7677 99.5595 46.2419 99.5595C45.7161 99.5595 45.293 99.3169 45.293 99.0197C45.293 98.7225 45.7191 98.4829 46.2419 98.4829C46.7647 98.4829 47.1938 98.7225 47.1938 99.0197Z" fill="#355E38"/>
<path d="M91.525 351.407L88.6964 347.407C86.7139 347.789 84.9188 353.724 86.8016 355.568C87.7233 356.478 89.6846 356.957 90.7876 356.081C92.4679 354.749 91.1412 353.248 91.525 351.407Z" fill="#B1B2C4"/>
<path d="M92.5542 352.153C92.2707 351.467 92.0806 350.746 91.9891 350.009C91.9286 349.363 91.9438 348.593 91.3847 348.141C90.8921 347.747 89.6531 347.732 89.0275 347.917C87.9849 348.22 87.7099 350.789 87.6404 351.228C87.583 351.589 87.3382 351.874 87.2687 352.25C87.0088 353.991 89.5261 354.655 90.747 355.007C92.6267 355.544 93.1254 353.794 92.5542 352.153Z" fill="#407A46"/>
<path d="M92.7886 351.025C92.5049 350.339 92.3148 349.618 92.2235 348.881C92.163 348.235 92.1781 347.465 91.6191 347.013C91.1265 346.615 89.8874 346.603 89.2619 346.788C88.2193 347.091 87.9443 349.66 87.8748 350.1C87.8174 350.458 87.5726 350.746 87.5031 351.119C87.2432 352.863 89.7605 353.527 90.9814 353.879C92.8611 354.418 93.3597 352.666 92.7886 351.025Z" fill="#54A060"/>
<path d="M90.9876 350.488C90.8939 350.767 90.4195 350.834 89.9269 350.64C89.4343 350.446 89.1079 350.058 89.2016 349.779C89.2953 349.5 89.7697 349.433 90.2623 349.63C90.7549 349.827 91.0813 350.209 90.9876 350.488Z" fill="#355E38"/>
<path d="M17.9989 224.929L16.6934 222.16C14.7109 222.542 13.2664 224.659 13.2754 229.089C13.2754 230.393 16.1585 230.478 17.2615 229.602C18.9417 228.271 17.612 226.769 17.9989 224.929Z" fill="#B1B2C4"/>
<path d="M19.0269 225.668C18.7431 224.981 18.553 224.259 18.4617 223.521C18.4013 222.875 18.4164 222.105 17.8573 221.653C17.3647 221.259 16.1257 221.244 15.5002 221.429C14.4576 221.732 14.1826 224.301 14.113 224.74C14.0556 225.101 13.8108 225.386 13.7413 225.762C13.4814 227.503 15.9988 228.167 17.2197 228.519C19.0994 229.065 19.598 227.315 19.0269 225.668Z" fill="#407A46"/>
<path d="M19.2612 224.546C18.9775 223.86 18.7874 223.139 18.6961 222.402C18.6357 221.756 18.6508 220.986 18.0917 220.534C17.5991 220.137 16.3601 220.125 15.7345 220.31C14.6919 220.613 14.4169 223.182 14.3474 223.621C14.29 223.979 14.0452 224.267 13.9757 224.64C13.7158 226.384 16.2332 227.048 17.4541 227.4C19.3307 227.94 19.8324 226.187 19.2612 224.546Z" fill="#54A060"/>
<path d="M17.4622 224.009C17.3685 224.288 16.8941 224.355 16.4015 224.161C15.9089 223.967 15.5825 223.579 15.6762 223.3C15.7699 223.021 16.2443 222.954 16.7369 223.151C17.2295 223.348 17.5559 223.73 17.4622 224.009Z" fill="#355E38"/>
<g style="mix-blend-mode:multiply" opacity="0.4">
<path d="M175.999 82L165.499 30.5L118.707 82L121.246 118.708L121.669 124.834L121.78 126.432L123.385 149.663L123.648 153.441L124.627 167.613L124.694 168.55L124.836 170.613L124.932 172.002L125.658 182.516L125.869 185.57L126.023 187.787L126.099 188.9V188.903L126.102 188.924L126.117 189.152V189.155L126.238 190.889L126.295 191.741L126.398 193.221L127.03 202.332L126.827 202.823L124.645 208.148L120.699 217.786L119.526 220.652L119.136 221.601L96.5254 276.818L95.3196 279.763L98.8433 286.513L115.084 317.635L109.127 329.502L86.2021 375.162L85.8395 375.89L84.951 377.652L84.265 379.023L83.3796 380.782L82.9444 381.655L79.8408 387.836L79.6745 392.176L79.605 393.989L79.4358 398.308L79.3875 399.594L78.9916 409.857L77.1149 458.601L76.8308 465.919L76.722 468.797L76.6978 469.404L76.6737 470.016L76.4893 474.851L76.3594 478.205L82.0922 477.95L85.6007 477.795L85.8878 477.783L90.8319 477.562L92.3701 477.492L92.8143 477.474L94.1924 477.41L95.4526 477.352L96.5919 477.304L96.7792 477.295H96.8034L108.571 476.767L109.68 476.719L114.624 476.5L143.131 475.227L174.473 473.828L175.355 473.789L175.999 473.759V82Z" fill="#D3D4E1"/>
</g>
<path d="M110.275 109.121C111.127 109.88 110.353 112.081 109.613 112.554L109.063 112.251C108.936 111.603 108.69 110.983 108.337 110.425C108.035 109.971 107.54 109.761 107.074 109.534C107.851 109.288 109.634 108.548 110.275 109.121Z" fill="#1F2226"/>
<path d="M108.043 119.186H108.076C108.063 119.176 108.052 119.164 108.043 119.151V119.186Z" fill="#F47F51"/>
<path d="M109.587 123.339C109.034 123.988 107.659 125.034 106.867 124.573L107.003 125.034C107.324 125.683 108.65 125.456 109.182 125.174C109.484 125.016 109.944 124.694 109.962 124.376C109.897 124.011 109.77 123.66 109.587 123.339Z" fill="#1F2226"/>
<path d="M100.693 151.225C100.707 151.221 100.722 151.221 100.736 151.225H100.693Z" fill="#CDD3D0"/>
<path d="M100.613 151.218H100.695C100.668 151.224 100.64 151.224 100.613 151.218Z" fill="#CDD3D0"/>
<path d="M121.848 331.425C121.996 331.291 123.19 330.94 124.822 330.46C127.805 329.584 132.256 328.277 134.514 327.082C135.677 326.475 137.557 325.666 138.572 324.768C140.186 323.343 141.664 321.129 142.833 319.233C143.868 317.553 144.674 315.742 145.23 313.847C145.399 313.295 145.553 312.728 145.704 312.14C146.309 309.741 146.336 307.181 146.656 304.719C145.734 304.528 144.689 304.388 143.828 304C143.468 306.396 142.232 308.943 140.938 310.975C139.579 313.119 137.886 314.866 136.665 317.092C136.32 317.704 135.938 318.293 135.52 318.857C135.13 319.4 134.816 319.464 134.066 319.679C132.667 320.079 122.843 321.681 120.262 322.684L121.848 331.425Z" fill="#F9AC78"/>
<path d="M124.822 330.46C127.805 329.584 132.256 328.277 134.514 327.082C135.677 326.475 137.557 325.666 138.572 324.768C140.186 323.343 141.664 321.129 142.833 319.233C143.869 317.553 144.675 315.742 145.23 313.847C142.994 317.711 139.258 325.326 136.375 322.754C137.974 325.76 127.276 327.807 124.441 328.243L124.822 330.46Z" fill="#F47F51"/>
<path d="M122.019 332.52C124.993 332.356 127.61 331.328 130.233 329.875C129.873 327.146 127.933 321.875 125.76 320.07L125.667 319.995L125.579 320.022L125.531 320.037C124.407 320.386 116.619 322.8 115.298 323.464C113.579 324.328 112.137 325.969 112.578 327.946C112.649 328.358 112.806 328.75 113.041 329.096C114.715 331.886 118.876 332.693 122.019 332.52Z" fill="#83512A"/>
<path d="M105.525 387.891L107.266 387.451C107.148 386.969 107.027 386.477 106.879 385.992C106.35 384.254 105.852 382.614 106.399 380.815C106.583 380.209 106.81 379.602 107.051 378.996C107.523 377.749 108.012 376.457 108.157 375.117C108.42 372.642 108.067 370.747 107.048 369.152C106.29 367.969 105.22 367.235 104.187 366.525C103.776 366.243 103.349 365.952 102.96 365.64L101.854 367.065C102.295 367.42 102.76 367.729 103.186 368.029C104.114 368.666 104.999 369.264 105.546 370.137C106.326 371.35 106.589 372.867 106.374 374.905C106.257 376.005 105.831 377.131 105.377 378.319C105.138 378.953 104.888 379.611 104.688 380.272C103.972 382.614 104.607 384.697 105.166 386.535C105.299 386.972 105.407 387.418 105.525 387.891Z" fill="#D95721"/>
<path d="M102.569 344.684C102.337 347.923 102.409 351.086 102.022 354.331C101.645 357.512 101.034 360.493 101.56 363.486C102.884 362.546 104.645 362.213 106.123 361.33C107.707 360.384 109.257 359.371 110.913 358.601C111.167 358.485 111.415 358.364 111.66 358.237C112.983 357.56 114.237 356.79 115.618 356.235C117.09 355.629 118.423 368.233 119.592 367.123C122.191 364.657 121.388 350.264 122.2 346.882C123.379 341.972 123.63 334.609 122.539 330.436C122.049 328.559 120.955 326.712 120.584 324.904L110.98 325.932C109.469 325.741 107.525 326.539 106.066 328.456C105.716 328.914 105.413 329.405 105.159 329.923C104.63 331.02 104.277 332.194 104.114 333.402C103.533 337.317 102.859 340.68 102.569 344.684Z" fill="#83512A"/>
<path d="M121.941 321.684C121.696 323.922 120.545 325.602 118.813 325.912C118.497 325.966 118.174 325.976 117.855 325.942C117.042 325.838 116.262 325.55 115.577 325.099C111.648 322.673 106.858 313.529 111.161 309.583C112.458 308.401 117.81 307.376 119.49 310.002C119.49 310.002 120.632 311.937 120.907 313.25C121.056 313.951 120.856 314.29 121.104 315.515C121.222 316.104 121.754 316.889 121.868 317.532C122.222 319.482 122.14 319.846 121.941 321.684Z" fill="#FFCCAA"/>
<path d="M111.368 320.631C111.287 320.298 110.852 319.209 110.867 319.136L118.745 325.517C118.513 326.891 119.99 330.651 117.609 331.416C116.4 331.346 115.521 330.721 114.115 328.868C113.139 327.582 111.296 326.042 110.305 325.905C111.072 325.15 111.816 324.389 111.789 323.142C111.747 322.292 111.606 321.449 111.368 320.631Z" fill="#FFCCAA"/>
<path d="M119.406 309.286C118.687 308.934 117.632 309.025 116.886 309.213C114.834 309.723 113.368 311.073 112.002 312.625L112.147 315.024C112.449 314.772 112.673 314.354 112.984 314.075C113.4 313.689 113.903 313.41 114.45 313.262C115.459 313.029 116.048 313.769 115.792 314.73C116.481 314.287 116.665 313.089 116.698 312.334C118.109 312.367 118.191 313.596 118.406 314.681C118.78 313.857 119.642 312.331 118.95 311.385C119.599 311.342 120.189 311.461 120.612 311.991C120.645 311.088 120.316 309.747 119.406 309.286Z" fill="#211623"/>
<path d="M119.936 326.084C119.633 326.139 119.135 326.351 118.799 326.315C115.989 325.62 113.033 322.372 110.824 316.886L112.084 316.513C112.465 316.816 113.946 323.258 119.186 325.978C119.198 325.987 119.921 326.075 119.936 326.084Z" fill="#D95721"/>
<path d="M107.321 316.986C107.707 317.86 108.55 319.482 110.179 320.246C110.312 319.079 110.324 317.198 111.288 317.238L111.684 317.089C111.899 316.984 112.101 316.856 112.289 316.707C112.893 316.137 113.002 315.236 113.413 314.524C113.703 314.049 114.059 313.619 114.471 313.247C114.7 313.032 114.942 312.834 115.175 312.64C116.619 311.53 120.234 309.774 121.899 310.563C121.834 310.276 121.732 309.999 121.597 309.738C120.557 307.715 117.342 305.198 114.211 305.544C112.963 305.689 111.01 306.684 109.4 307.846C108.288 308.649 107.336 309.535 106.891 310.272C106.227 311.382 106.169 312.743 106.408 314.087C106.598 315.086 106.904 316.059 107.321 316.986Z" fill="#F4B33D"/>
<path d="M107.32 316.986C107.707 317.859 108.55 319.482 110.179 320.246C110.312 319.078 110.324 317.198 111.288 317.238L111.684 317.089C111.898 316.983 112.101 316.855 112.288 316.707C112.893 316.137 113.002 315.236 113.413 314.523C113.702 314.049 114.059 313.619 114.47 313.247C114.7 313.031 114.942 312.834 115.174 312.64C116.619 311.53 120.233 309.774 121.898 310.563C121.834 310.276 121.732 309.999 121.596 309.738C120.215 309.216 118.456 309.707 117.154 310.19C115.963 310.593 114.861 311.223 113.908 312.046C113.534 312.382 113.193 312.754 112.89 313.156C111.889 314.466 111.475 316.664 109.653 317.041C108.372 317.307 107.139 315.485 106.398 314.093C106.592 315.09 106.901 316.061 107.32 316.986Z" fill="#83512A"/>
<path d="M113.459 307.518C113.52 307.821 114.043 307.952 114.623 307.821C115.203 307.691 115.623 307.351 115.563 307.054C115.502 306.757 114.977 306.62 114.396 306.751C113.816 306.881 113.396 307.224 113.459 307.518Z" fill="#83512A"/>
<path d="M111.492 318.308L112.017 319.218C113.51 321.523 110.528 321.159 109.633 319.785C108.47 317.969 110.24 316.222 111.492 318.308Z" fill="#FFCCAA"/>
<path d="M110.237 317.82C110.811 317.79 111.198 318.478 111.446 318.982L111.642 319.628C111.591 319.767 111.02 319.761 110.817 319.585C110.615 319.409 110.515 318.742 110.956 318.87C110.778 318.566 110.509 318.042 110.107 318.169C109.705 318.296 109.805 318.93 109.923 319.273C109.539 318.876 109.321 317.872 110.237 317.82Z" fill="#F9AC78"/>
<path d="M103.043 372.885C103.563 374.705 103.647 377.489 107.259 379.445C108.817 380.315 110.298 381.32 111.683 382.447C112.65 383.217 113.59 384.036 114.49 384.873C118.449 388.513 121.622 392.3 122.686 392.934C124.113 391.539 130.619 385.935 132.287 386.262C130.123 382.08 127.996 374.665 125.004 370.971C124.079 369.831 123.315 369.564 122.586 369.106C121.939 368.691 121.417 368.107 121.075 367.417C120.973 367.229 120.746 366.774 120.453 366.149C119.169 363.42 116.557 357.524 116.863 356.678L103.043 372.885Z" fill="#211623"/>
<path d="M101.395 359.747C103.105 359.944 105.323 360.426 106.623 361.015C107.389 361.324 108.081 361.794 108.65 362.395L110.306 360.633C109.892 360.633 109.291 360.172 108.726 359.747C108.437 359.526 108.134 359.324 107.819 359.141C106.834 358.589 105.786 358.16 104.698 357.861C103.697 357.591 102.676 357.348 101.642 357.157C101.543 358.031 101.449 358.892 101.395 359.747Z" fill="#D95721"/>
<path d="M111.684 382.447C112.651 383.217 113.59 384.036 114.491 384.873C116.672 383.113 118.485 380.938 119.828 378.474C120.03 378.092 120.227 377.689 120.432 377.261C121.135 375.726 121.697 374.131 122.113 372.494C122.276 371.827 122.415 369.901 122.611 369.103C122.629 368.982 122.673 368.866 122.741 368.764L120.463 366.034V366.149C120.665 368.933 119.29 373.264 117.815 375.59L117.211 376.552C116.344 377.898 115.398 379.281 114.267 380.333C113.472 381.115 112.607 381.822 111.684 382.447Z" fill="#D95721"/>
<path d="M99.33 391.63L101.11 391.851V391.836C101.176 391.266 101.249 390.672 101.34 390.108C101.736 387.712 102.143 385.231 101.243 382.605C100.98 381.846 100.672 381.088 100.373 380.373C99.8044 378.99 99.2635 377.686 99.0368 376.327C98.6138 373.807 98.7346 371.839 99.4418 370.128C99.9404 368.915 100.771 368.005 101.651 367.041C102.059 366.595 102.482 366.131 102.884 365.631L101.494 364.475C101.131 364.93 100.729 365.367 100.342 365.788C99.3934 366.825 98.4083 367.896 97.7857 369.428C96.9516 371.472 96.7854 373.764 97.2689 376.642C97.5319 378.207 98.1363 379.675 98.7195 381.088C99.0217 381.822 99.3058 382.511 99.5506 383.211C100.3 385.395 99.9465 387.536 99.5717 389.804C99.472 390.411 99.3995 391.017 99.33 391.624V391.63Z" fill="#D95721"/>
<path d="M111.156 357.4L114.142 368.924L114.366 369.792C115.532 368.673 117.457 368.733 118.421 367.387C119.328 366.14 119.866 362.61 120.766 361.424C120.736 362.101 120.162 363.975 120.129 364.663C119.684 374.332 126.711 382.432 129.083 388.297C129.291 388.127 129.576 387.903 129.893 387.651C130.799 386.942 132.008 386.02 132.585 385.571C131.694 383.305 131.058 380.946 130.688 378.538C130.126 375.16 129.624 361.1 129.385 359.147C129.155 357.257 129.016 356.678 129.083 354.701C129.146 353.084 127.608 349.545 122.193 350.379C119.047 350.858 113.042 354.777 111.156 357.4Z" fill="#FFCCAA"/>
<path opacity="0.5" d="M114.018 365.055L114.141 368.915L114.365 369.783C115.532 368.664 117.457 368.724 118.421 367.378C119.327 366.131 119.865 362.601 120.766 361.415C120.736 362.092 120.161 363.966 120.128 364.654C119.684 374.323 126.71 382.423 129.082 388.288C129.291 388.118 129.575 387.894 129.892 387.642C129.031 384.658 127.172 382.017 125.906 379.105C124.123 374.981 122.407 371.302 121.86 366.859C121.47 363.669 121.805 358.598 124.719 356.648C122.174 356.975 121.352 358.874 120.119 360.827C119.454 361.873 118.517 362.583 117.487 363.214C116.716 363.684 114.691 365.206 114.018 365.055Z" fill="#F47F51"/>
<path d="M100.501 368.843C100.365 370.565 100.47 372.266 101.165 373.898C102.731 377.583 106.173 379.008 109.73 378.514C115.324 377.734 117.521 371.423 119.703 366.686C117.309 366.923 116.378 366.583 115.55 364.648C115.499 364.533 115.451 364.412 115.402 364.284C114.275 361.327 114.45 357.067 114.997 354.058C112.979 354.665 101.398 362.853 101.398 362.853C101.132 364.836 100.655 366.856 100.501 368.843Z" fill="#211623"/>
<g style="mix-blend-mode:multiply" opacity="0.4">
<path d="M100.501 368.842C100.365 370.565 100.47 372.266 101.165 373.898C102.731 377.582 106.173 379.008 109.73 378.513C115.324 377.734 117.521 371.423 119.703 366.686C117.309 366.922 116.378 366.583 115.55 364.648C114 367.923 111.885 371.65 107.678 371.942C105.717 372.075 103.432 371.729 101.836 370.446C101.314 369.981 100.864 369.441 100.501 368.842Z" fill="#121416"/>
</g>
<path d="M106.051 369.625C107.007 370.999 108.205 372.188 109.587 373.13C111.062 374.086 114.609 375.278 116.405 374.999C118.027 374.747 119.146 372.36 119.702 370.753C117.616 372.042 113.73 370.983 111.258 369.558C110.846 369.322 110.452 369.055 110.079 368.76C107.716 366.856 105.631 363.071 105.344 360.02L103.794 362.237C103.349 364.527 104.431 367.326 106.051 369.625Z" fill="#D95721"/>
<g style="mix-blend-mode:multiply" opacity="0.6">
<path d="M106.051 369.625C107.007 371 108.205 372.188 109.587 373.131C111.061 374.086 114.609 375.278 116.404 374.999C118.027 374.747 119.145 372.36 119.701 370.753C117.616 372.042 113.73 370.983 111.258 369.558C110.83 369.895 110.317 370.105 109.777 370.165C108.509 370.299 107.229 370.114 106.051 369.625Z" fill="#504359"/>
</g>
<path d="M106.656 337.248C106.822 337.354 107.487 338.421 108.403 339.886C110.068 342.558 112.552 346.558 114.314 348.42C115.221 349.385 116.508 351.004 117.638 351.756C119.433 352.933 121.939 353.752 124.042 354.364C125.909 354.903 127.841 355.18 129.784 355.189C130.349 355.189 130.926 355.189 131.522 355.171C133.939 355.092 136.357 354.389 138.774 354.003C138.696 353.048 138.533 351.987 138.654 351.031C136.299 351.359 133.558 350.865 131.283 350.176C128.883 349.448 126.75 348.287 124.332 347.72C123.66 347.557 122.998 347.355 122.35 347.113C121.745 346.883 121.579 346.594 121.165 345.921C120.394 344.66 116.112 335.492 114.441 333.248L106.656 337.248Z" fill="#FFCCAA"/>
<path opacity="0.5" d="M108.414 339.886C110.079 342.558 112.563 346.558 114.325 348.42C115.232 349.385 116.519 351.004 117.649 351.756C119.444 352.933 121.95 353.752 124.053 354.364C125.92 354.902 127.852 355.18 129.795 355.189C125.531 354.091 117.323 352.584 118.916 349.033C116.543 351.459 111.596 341.551 110.384 338.897L108.414 339.886Z" fill="#F47F51"/>
<path d="M118.484 337.757C118.475 337.782 118.465 337.806 118.453 337.83C118.455 337.843 118.455 337.856 118.453 337.869C118.445 337.893 118.435 337.917 118.423 337.939C118.238 338.359 118.009 338.757 117.74 339.128C116.61 340.729 114.658 342.425 112.863 343.65C112.361 343.992 111.871 344.299 111.415 344.56C111.095 344.742 110.79 344.899 110.509 345.027C108.393 342.87 106.698 340.596 105.7 337.73L105.637 337.533L105.592 337.396C105.145 336.023 104.894 334.594 104.845 333.151C104.803 331.392 105.147 329.669 106.069 328.374C106.166 328.238 106.272 328.107 106.371 327.98C106.627 327.654 106.951 327.389 107.32 327.203C109.052 326.206 111.001 327.152 112.301 328.595C112.603 328.935 113.246 329.833 114.002 330.943C115.431 333.038 117.275 335.886 118.082 337.136L118.408 337.642L118.435 337.684L118.484 337.757Z" fill="#83512A"/>
<path d="M137.509 351.089L137.086 353.949C137.845 354.183 138.645 354.248 139.431 354.14C142.272 353.697 143.151 350.667 144.136 351.131C143.314 351.72 143.601 352.066 144.1 352.041C144.373 352.025 144.633 351.924 144.846 351.752C145.059 351.58 145.213 351.346 145.288 351.083C145.804 349.212 144.442 349.184 143.076 349.009C143.074 348.998 143.074 348.986 143.076 348.975C143.094 348.514 143.212 348.063 143.421 347.652C143.629 347.241 143.924 346.881 144.284 346.595C144.535 346.428 145.058 346.41 145.049 346.043C145.041 345.922 145.002 345.805 144.937 345.703C144.81 345.475 144.451 345.372 144.103 345.309C143.882 345.266 143.668 345.245 143.517 345.218C144.082 345.303 144.266 345.112 144.221 344.878C144.14 344.657 143.976 344.477 143.765 344.374C143.553 344.272 143.311 344.256 143.088 344.329C142.223 344.572 141.302 345.366 140.525 345.8C139.349 346.452 139.664 347.45 139.386 348.672C139.247 349.33 138.591 351.165 137.509 351.089Z" fill="#FFCCAA"/>
<path d="M128.086 152.999C130.927 152.556 131.806 149.526 132.791 149.99C131.969 150.579 132.256 150.924 132.755 150.9C132.892 150.382 133.201 149.926 133.631 149.608C131.646 149.102 131.069 150.854 129.802 151.977C129.289 152.408 128.709 152.753 128.086 152.999Z" fill="#F47F51"/>
<path d="M131.734 147.831C131.752 147.37 131.87 146.919 132.079 146.508C132.287 146.097 132.582 145.736 132.942 145.45C133.193 145.283 133.716 145.265 133.707 144.898C133.32 145.241 132.305 145.065 131.867 145.481C131.428 145.896 130.884 147.573 130.77 148.237C131.063 148.043 131.39 147.905 131.734 147.831Z" fill="#F47F51"/>
<path d="M130.094 145.954C130.378 144.386 131.729 144.71 132.771 144.165C132.551 144.122 132.336 144.101 132.185 144.074C132.75 144.158 132.934 143.967 132.889 143.734C132.451 143.998 131.626 144.089 131.327 144.143C130.348 144.319 130.272 144.956 130.094 145.954Z" fill="#F47F51"/>
<path d="M176.001 82V15.5L128.074 82V235.655L128.256 236.55L131.465 252.547L131.559 253.005L131.825 254.333L131.831 254.349L132.087 255.637L132.728 258.828L132.764 259.016L133.009 260.223L141.045 300.246L143.357 311.758L142.71 329.763L142.677 330.745L142.634 331.868V331.886L142.595 332.965L142.492 335.837L142.447 337.072L142.402 338.379L142.163 345.026L141.205 371.772L141.081 375.208L139.975 406.011L139.567 408.346V408.352L138.219 416.04V416.046L134.714 436.056L134.097 439.562L136.031 441.494L141.589 447.056L141.682 448.727L142.223 458.607L142.625 465.922L143.13 475.123L143.133 475.227L144.656 503L171.202 502.839L172.132 502.833L176.001 502.809V82Z" fill="#E5E5ED"/>
<path d="M176.001 334.081L174.045 330.615L170.15 323.71L169.222 322.06L156.397 299.315L151.7 234.588L163.094 196.218L163.94 193.373L174.045 159.346L176.001 152.759V82V15L128.074 82V235.582L141.036 300.236L143.335 311.712L142.154 344.981L139.969 405.999L139.573 408.258L138.225 415.916L134.708 436.035L134.103 439.562L136.043 441.506L141.574 447.056L143.471 446.752L146.191 438.434L149.488 428.338L167.285 373.825L170.443 364.148L170.715 363.314L171.25 361.685L174.039 353.136L176.001 347.146V334.081Z" fill="#9A9BB0"/>
<path d="M176.001 366.728L142.015 344.932L138.788 407.618L137.615 425.017L157.573 456.208L176.001 446.537V366.728Z" fill="#D8D9E2"/>
<path d="M175.999 153.162V104.093L142.307 229.456L156.395 299.369L151.699 234.663L175.999 153.162Z" fill="#C2C3D0"/>
<path d="M139.569 172.899L127.015 171.201C126.136 171.377 125.326 171.962 124.655 172.593C123.18 173.979 127.073 176.536 127.78 178.543C128.366 180.178 127.345 182.213 129.1 181.813C131.364 181.3 132.255 178.364 134.238 177.103C135.314 176.408 139.397 174.067 139.569 172.899Z" fill="#B2926B"/>
<path d="M139.15 173.852C135.491 176.278 132.804 176.842 130.145 177.109C128.598 177.263 126.821 177.109 125.594 176.426C124.367 175.744 123.66 174.57 124.194 172.687C125.358 168.578 129.676 169.797 132.656 169.958C134.3 170.045 135.515 170.403 137.056 169.985C137.866 169.766 139.036 168.738 140.078 168.165C140.74 167.807 141.357 167.641 141.801 167.989C144.379 170.036 140.71 172.817 139.15 173.852Z" fill="#AA393F"/>
<path d="M140.075 168.183C140.982 170.073 138.047 172.265 136.7 173.16C133.043 175.586 130.353 176.153 127.697 176.42C126.994 176.491 126.285 176.491 125.582 176.42C124.358 175.747 123.647 174.564 124.182 172.681C125.346 168.572 129.664 169.791 132.644 169.951C134.288 170.039 135.503 170.397 137.044 169.979C137.857 169.772 139.027 168.744 140.075 168.183Z" fill="#CE5657"/>
<path d="M129.654 172.493C129.893 172.954 129.47 173.651 128.711 174.049C127.953 174.446 127.146 174.4 126.898 173.939C126.65 173.478 127.083 172.781 127.841 172.384C128.6 171.986 129.419 172.032 129.654 172.493Z" fill="#72383E"/>
<path d="M139.487 169.964C139.647 170.267 139.36 170.752 138.843 171.022C138.327 171.292 137.78 171.262 137.635 170.946C137.489 170.631 137.761 170.161 138.275 169.888C138.789 169.615 139.327 169.651 139.487 169.964Z" fill="#72383E"/>
<path d="M155.952 109.977C155.112 109.067 152.078 109.868 150.888 109.543C149.377 109.125 147.865 108.142 147.155 106.868L142.819 104.476C139.733 110.365 144.106 119.133 151.537 117.383C153.695 116.873 158.11 112.348 155.952 109.977Z" fill="#B2926B"/>
<path d="M152.673 108.857C149.325 108.988 148.292 105.521 145.493 104.133C140.111 101.473 144.484 109.849 145.351 110.996C145.75 111.52 146.512 112.815 147.817 113.294C150.135 114.14 153.018 114.856 154.97 113.085C159.938 108.588 155.729 108.739 152.673 108.857Z" fill="#D3A122"/>
<path d="M153.242 107.566C149.896 107.696 148.428 105.315 145.629 103.926C140.247 101.267 145.055 108.548 145.931 109.689C146.327 110.216 147.104 111.39 148.397 111.987C150.637 113.025 153.293 113.131 155.55 111.781C159.473 109.443 156.3 107.447 153.242 107.566Z" fill="#F9C730"/>
<path d="M155.752 109.861C155.658 110.119 155.189 110.183 154.706 110.001C154.222 109.819 153.911 109.461 154.008 109.2C154.105 108.939 154.57 108.879 155.053 109.061C155.537 109.243 155.836 109.601 155.752 109.861Z" fill="#A07D2E"/>
<path d="M146.441 105.937C146.344 106.198 145.876 106.259 145.395 106.077C144.915 105.895 144.6 105.537 144.697 105.279C144.794 105.021 145.259 104.958 145.74 105.14C146.22 105.321 146.538 105.679 146.441 105.937Z" fill="#A07D2E"/>
<path d="M133.77 256.196C133.733 256.193 133.696 256.193 133.658 256.196C133.654 256.166 133.641 256.139 133.622 256.117L128.76 259.756C128.847 259.78 129.425 260.969 129.748 261.351C130.277 261.99 130.921 262.524 131.646 262.925C132.803 263.483 135.009 263.504 135.593 262.225C135.895 261.56 135.78 260.772 135.937 260.077C136.094 259.383 136.542 258.864 136.644 258.191C136.928 256.314 135.015 256.39 133.77 256.196Z" fill="#B2926B"/>
<path d="M130.195 257.232C128.703 258.673 129.461 260.675 130.767 261.539C131.431 261.979 133.628 262.376 134.308 261.842C134.765 261.475 134.937 260.18 134.913 260.168L135.124 258.855C136.091 258.167 135.868 255.619 134.021 255.179C132.97 254.915 130.99 256.462 130.195 257.232Z" fill="#C15C0A"/>
<path d="M129.036 257.081C127.543 258.522 129.138 260.626 130.444 261.491C131.109 261.93 132.469 262.224 133.164 261.676C133.62 261.309 133.792 260.014 133.768 260.002L133.977 258.688C134.944 258 135.642 255.586 133.798 255.149C132.732 254.901 129.83 256.314 129.036 257.081Z" fill="#F9800D"/>
<path d="M131.213 257.621C131.657 257.342 132.183 257.384 132.389 257.715C132.594 258.046 132.389 258.543 131.956 258.825C131.524 259.107 130.986 259.062 130.781 258.731C130.575 258.4 130.772 257.903 131.213 257.621Z" fill="#C15C0A"/>
<path d="M148.249 335.374C148.219 335.338 148.184 335.305 148.147 335.276C148.177 335.258 148.2 335.229 148.21 335.195L140.41 333.936L141.015 338.427C141.377 339.301 141.317 340.981 142.798 340.729C143.901 340.541 144.735 339.944 145.729 339.619C146.723 339.295 147.781 339.316 148.712 338.964C151.265 337.967 149.259 336.493 148.249 335.374Z" fill="#B2926B"/>
<path d="M143.42 333.193C140.19 332.935 138.534 334.834 138.797 336.429C138.933 337.242 140.652 339.249 141.994 339.437C142.901 339.562 144.626 338.864 144.614 338.831L146.406 338.151C148.219 338.479 151.054 336.656 149.73 334.903C148.99 333.909 145.14 333.329 143.42 333.193Z" fill="#C15C0A"/>
<path d="M142.456 332.171C139.226 331.913 138.283 334.543 138.546 336.141C138.682 336.954 139.688 338.227 141.03 338.415C141.936 338.54 143.662 337.842 143.65 337.809L145.445 337.129C147.243 337.457 150.848 336.453 149.534 334.703C148.769 333.709 144.164 332.307 142.456 332.171Z" fill="#F9800D"/>
<path d="M143.967 334.257C144.749 334.43 145.224 334.864 145.027 335.255C144.831 335.646 144.039 335.798 143.256 335.625C142.474 335.452 142.002 335.018 142.196 334.627C142.389 334.236 143.187 334.084 143.967 334.257Z" fill="#C15C0A"/>
</g>
</g>
<defs>
<clipPath id="clip0_1_3954">
<rect width="176" height="503" fill="white"/>
</clipPath>
</defs>
</svg>
